
<svg id="Layer_2" data-name="Layer 2" xmlns="http://www.w3.org/2000/svg" xmlns:xlink="http://www.w3.org/1999/xlink" viewBox="0 0 777.36 618.26">
  <defs>
    <style>
      .cls-1 {
        fill: url(#linear-gradient);
      }

      .cls-2 {
        fill: #fff;
      }
    </style>
    <linearGradient id="linear-gradient" x1="5.71" y1="308.95" x2="241.09" y2="308.95" gradientUnits="userSpaceOnUse">
      <stop offset="0" stop-color="#0032ba"/>
      <stop offset=".08" stop-color="#0832ba"/>
      <stop offset=".2" stop-color="#1f33bc"/>
      <stop offset=".35" stop-color="#4535bf"/>
      <stop offset=".53" stop-color="#7937c2"/>
      <stop offset=".54" stop-color="#7d38c3"/>
      <stop offset=".67" stop-color="#994fcf"/>
      <stop offset=".94" stop-color="#e28bf0"/>
      <stop offset="1" stop-color="#f298f8"/>
    </linearGradient>
  </defs>
  <g id="Layer_1-2" data-name="Layer 1">
    <polygon class="cls-1" points="5.71 89.79 208.09 .68 218.09 1.68 241.09 5.18 241.09 609.18 220.87 617.21 208.09 615.68 6.64 556.46 5.71 89.79"/>
    <g>
      <path d="M299.09,87.18c.14-3.1.65-3.07,4.49-3.52,12.7-1.47,57.25-1.16,68.48,2.55,18.46,6.1,20.22,28.12,17.77,44.7-.68,4.63-6.97,14.21-6.81,15.17.12.73,2.26.99,2.93,2.2,6.63,11.82,7.84,34.48-1.86,44.89-16.13,17.32-60.72,5.92-82.54,10.08-.74-.1-2.46-1.83-2.46-2.08,0-37.36-1.68-76.93,0-114ZM362.09,110.68h-37v21h35c.08,0-.15-1.1.37-1.63s1.63-.29,1.63-.37v-19ZM362.09,159.68l-33.55-1.05c-1.02-.21-3.45.72-3.45,1.55v17l1.5,1.5h32c.25,0,3.5-3.25,3.5-3.5v-15.5Z"/>
      <path d="M718.59,351.68c31.91,3.88,30.32,49,17.99,69.99l-15.48,8.5,26.85,35.15,1.14,5.36h-28l-28.52-39.98c-3.08-2.22-8.73-.51-12.49-1.02l-1.14,40.86c-1.22,1.96-24.85,1.4-24.85.15v-117.5l1.5-1.5c19.83,1.75,43.67-2.35,63,0ZM680.09,377.68v23.5l1.5,1.5h31c8.65,0,6.49-25,2-25h-34.5Z"/>
      <path d="M684.59,202.68c-1.1-.34-1.64-2.3-1.55-3.45l-.69-111.93,3.2-3.2,67.95.67c11.16,2.97,21.41,10.02,22.63,22.37,1.41,14.26,1.96,60.56-.28,73.8-1.49,8.8-14.53,21.74-23.26,21.74h-68ZM710.59,109.68l-1.5,1.5v66l1.5,1.5h33c2.07,0,5.19-4.09,5.55-6.45,1.36-9.05,1.26-47.85,0-57.1-.3-2.16-2.53-5.45-4.55-5.45h-34Z"/>
      <path d="M438.85,351.94c13.1-1.79,50.55-1.84,61.17,5.31,2.82,1.9,7.74,7.87,8.97,11.03,3.59,9.15,3.15,62.73,1.97,74.78-.95,9.7-4.64,21.21-13.82,26.18-6.62,3.58-7.49,1.3-13.51,1.39-13.05.2-45.13,2.93-55.26-2.74-5.22-2.92-10.37-10.42-11.85-16.15-2.82-10.93-2.86-69.23-.19-80.3s11.52-18,22.5-19.5ZM484.09,378.68l-36.71-1.71c-.92.82-5.29,1.43-5.29,1.71v65.5c0,1.25,4.15,2.34,5.48,2.52,3.73.5,32.55.37,34.5-.54.48-.23,2.02-1.79,2.02-1.98v-65.5Z"/>
      <path d="M299.09,354.18c.12-.46,1.74-1.95,2.46-2.08l60.92-.3c15.14,1.71,27.11,9.02,28.66,25.34,1.27,13.45,1.77,64.45-1.14,75.92-2.67,10.54-13.62,18.61-24.39,18.61h-65l-1.5-1.5v-116ZM365.09,378.68c-2.08.13-6.05-2-7.5-2h-32.5v70h36.5c.25,0,3.5-3.25,3.5-3.5v-64.5Z"/>
      <path d="M559.87,351.96c12.54-1.53,45.77-1.47,56.78,3.65,5.18,2.41,10.76,10.4,12.17,15.83,2.77,10.65,2.51,70.44-.44,81.03-2.21,7.93-10.25,18.13-18.92,18.87-9.96.85-26.09-.62-36.92-.72-3.13-.03-5.87,1.2-8.94,1.13-16.01-.34-26.98-7.98-28.54-24.55s-1.67-53.95.29-69.77c1.82-14.65,9.65-23.66,24.52-25.48ZM601.09,377.68c-4.08-1.33-30.73,0-37.5,0-.29,0-2.1,1.9-2.25,2.62l1.24,64.39c.91,1.67,2.26,1.82,3.96,2.04,3.73.48,32.6.34,34.53-.56.48-.23,2.02-1.79,2.02-1.98v-64.5c0-.08-1.1.15-1.63-.37s-.29-1.6-.37-1.63Z"/>
      <path d="M440.09,84.68v88.5c0,.45,2.75,4.16,3.43,4.57,2.24,1.35,27.08,1.48,31.09.95,1.34-.18,5.48-1.27,5.48-2.52v-91.5h26v96.5c0,9.21-11.41,18.21-19.61,20.39-10.06,2.67-48.27,2.54-57.38-1.4-4.84-2.09-15.01-11.73-15.01-16.99v-98.5c2.52.82,26-1.48,26,0Z"/>
      <polygon points="208.09 420.68 208.09 501.68 156.09 492.68 154.98 438.8 117.09 435.68 117.09 417.68 208.09 420.68"/>
      <path d="M611.09,178.68h51.5l1.5,1.5v21l-1.5,1.5h-77.5v-117.5l1.45-1.25c3.49,1.86,24.55-3.06,24.55,2.25v92.5Z"/>
      <path d="M394.09,267.68h24v-32h17.5c3.02,0,3.35,7.72,3.54,10.46,1.22,17.34,1.74,50.16,0,67.09-.1.98-.77,5.45-1.05,5.45h-18.5l-1.5-1.5v-29.5h-24v31h-18.5l-1.5-1.5v-80l1.5-1.5h17c1.6,0-.44,28.78,1.5,32Z"/>
      <path d="M518.09,254.68h-40v13h27.5c2.04,0,1.47,19,.5,19h-26.5c-2.44,0-1.26,10.75-1.5,13h36.5c5.26,0,4.68,18.65.79,19.8-15.95-.78-34.15,1.73-49.83.24-6.98-.66-7.84-1.55-8.5-8.5-2.2-23.07,1.39-49.71,1.04-73.03-.03-.82.93-2.5,1.5-2.5h57l1.5,1.5v17.5Z"/>
      <polygon points="241.09 218.68 241.09 376.68 218.09 376.68 218.09 214.68 241.09 218.68"/>
      <path d="M558.09,202.68h-26v-118c0-1.17,20.66,1.25,23.47-1.05.83-.04,2.53,1,2.53,1.55v115c0,.63-.78,1.55,0,2.5Z"/>
      <path d="M241.09,116.68c-.8.85-19.88-4.92-23-2V1.68c0-2.69,23-2.57,23,3.5v111.5Z"/>
      <path d="M361.09,255.68h-22v58.5c0,.25-1.75,4.5-2,4.5h-16.5l-1.5-1.5v-62.5h-23v-16.5c0-.18,2.32-2.5,2.5-2.5h61l1.5,1.5v18.5Z"/>
      <path d="M208.09,160.68v44l-44,10v-41.5c0-2.29,39.53-10.98,44-12.5Z"/>
      <polygon points="208.09 387.68 208.09 409.68 117.09 406.68 117.09 387.68 208.09 387.68"/>
      <polygon points="241.09 420.68 241.09 501.18 239.59 502.68 218.09 502.68 218.09 421.68 241.09 420.68"/>
      <path d="M241.09,549.68v59.5c0,11.18-23,11.01-23,5v-62.5l23-2Z"/>
      <path d="M241.09,161.68v45l-23-2v-46c7.76-.09,15.57.98,23,3Z"/>
      <path d="M241.09,512.68v25.5c0,2.06-23,4.1-23,1v-25.5l23-1Z"/>
      <path d="M241.09,150.68c-.52.6-6.48-2-7.5-2h-15.5v-24c3.19-1.01,23,1.32,23,4.5v21.5Z"/>
      <rect x="218.09" y="387.68" width="23" height="23"/>
      <path d="M152.84,130.94c2.94,3.22,1.43,16.41-5.03,14.6-6.92-1.93-.53-20.69,5.03-14.6Z"/>
      <path d="M84.81,508.8c6.59-1.51,7.11,14.9.79,14.91-5.17,0-6.74-13.56-.79-14.91Z"/>
      <path d="M62.34,173.42c-2.66-2.89-2.27-14.71,4.08-12.64,5.95,1.94,1.34,18.53-4.08,12.64Z"/>
      <path d="M49.81,278.82c7.06-1.95,7.27,12.4,1.72,12.9s-6.17-11.67-1.72-12.9Z"/>
      <path class="cls-2" d="M172.84,316.82c-5.48.62-4.82,11.83-1.75,13.37,8.91,4.47,9.6-14.25,1.75-13.37ZM25.79,326.83c-3.92,1.14-5.22,10.57-2.3,12.95,7.33,5.96,10.96-15.48,2.3-12.95Z"/>
      <path d="M161.63,128.71l46.46-13.03V.68c-4.99-.45-9.65,1.65-14.26,3.24-19.55,6.74-41.26,17.19-60.72,25.28C94.31,45.33,45.92,62.69,9.4,81.49c-5.46,2.81-8.82,6.2-9.1,12.68-1.24,28.34,1.78,398.71,1.78,464.03,0,1.98,5.91,4.47,7.83,5.17,18.88,6.96,45.32,11.13,65.37,16.63,44.18,12.1,88.04,26.01,132.82,35.68v-65l-110.59-25.97c-2.71.23-2.63,5.61-6.67,7.21-19.18,7.6-24.04-33.84-4.33-31.19,7.13.96,9.81,7.91,11.25,14.01,36.85,7.64,73.01,18.61,110.34,23.95v-26l-61.02-12.48-1.42-50.58-36.57-3.93c.37-22.54,2.51-45.55,0-68l99-1.01v-161l-52,10v-50c-3.17.39-19.23,4.02-19.87,5.63l-1.19,94.31-71.23,10.03c-2.2,15.62-18.95,22.32-22.25,3.08-2.66-15.49,10.7-29.65,20.11-12.03l65.29-10.17,1.34-93.66,79.81-23.2v-24l-46.4,13.88c-.16,7.51-8.32,18.37-16.54,15.59-3.49-1.18-3.75-5.39-7.51-5.54-1.33-.05-24.6,6.65-25.57,7.56-3.22,3.03.43,78.17-1,88.5l-50.99,9.01v-71.5c0-.32-3.08-3.11-3.89-5.11-3.23-7.91-4.19-24.16,6.64-26.18,15.53-2.89,17.45,25.78,5.24,31.5l-.99,60.29,35.01-5,.14-87.86,34.8-10.2c-1.4-16.04,15.4-29.86,24.6-11.92ZM93.09,476.18c-.26.84-1.3,1.27-2.25,1.3-4.1.13-18.49-3.86-20.3-3.5-1.8.35-2.93,7.88-11.98,6.78-6.6-.81-10.53-11.63-10.49-17.52.04-6.68,4.26-10.44,5-14.07,2.51-12.36-1.14-34.52,1.07-48.03-.68-4.92-9.22-7.03-9.14-17.95.07-8.73,8.71-19.97,17.08-12,5.42,5.17,6.37,14.71,4,21.49l27,3.01v80.5ZM148.58,320.66c2.06-.15,12.03-.59,12.47-1.03,1.89-1.91-.37-11.4,10.52-12.02,22.09-1.26,17.64,38.1-1.52,32.61-5.3-1.52-7.88-8.64-9.18-9.31-1.83-.94-32.34.53-37.32.73-28.6,1.16-57.26,3.88-85.89,4.98-2.57,17.08-20.62,18.65-21.61-.41-.94-18.07,12.43-25.92,22.47-8.87,36.58-3.41,73.42-3.98,110.05-6.68ZM97.71,114.57c-14.51,44.5-38.63-12.42-13.03-15.85,8.81-1.18,8.2,4.49,10.6,5.76,2.89,1.54,53.88-19.74,61.54-21.58,4.97-6.94,7.41-21.16,19.85-16.3,15.81,6.17,7.14,39.83-11.32,32.31-2.94-1.2-4.05-4.93-4.41-5.13-2.9-1.63-55.39,19.64-63.22,20.79Z"/>
      <path d="M85.09,403.68v62.5c0,.71-1.22,1.12-2.06,1.11-.91,0-11.52-1.17-11.94-1.6-.37-.38-.13-6.81-2.15-10.35s-7.85-6.13-7.85-6.65v-47l24,2Z"/>
      <path d="M53.73,377.82c9.55-3.72,7.51,13.03,3.72,13.71-6.1,1.09-7.2-12.35-3.72-13.71Z"/>
      <path d="M58.78,457.78c6.53-1.65,6.06,14.36,1.83,14.69-5.25.42-7.23-13.33-1.83-14.69Z"/>
      <path d="M172.84,316.82c7.85-.88,7.16,17.84-1.75,13.37-3.06-1.54-3.73-12.75,1.75-13.37Z"/>
      <path d="M25.79,326.83c8.67-2.53,5.03,18.91-2.3,12.95-2.92-2.38-1.62-11.8,2.3-12.95Z"/>
      <path d="M171.83,75.82c6.6-.99,6.25,13.97-.24,13.97-6.42,0-6.09-13.02.24-13.97Z"/>
      <path d="M85.77,107.83c5.32-.31,5.82,14.67-1.15,13.91-4.94-.54-5.33-13.54,1.15-13.91Z"/>
    </g>
  </g>
</svg>